<?xml version="1.0" encoding="UTF-8"?><svg id="Layer_1" xmlns="http://www.w3.org/2000/svg" viewBox="0 0 360 202.47"><defs><style>.cls-1{fill:#155a7d;}</style></defs><path class="cls-1" d="M14.58,181.95c-1.92.47-3.31-1.79-2.03-3.29l77.68-90.82c1.87-2.17,5.03-2.67,7.48-1.19l13.64,8.3c1.78,1.08,4.08.71,5.42-.89L182.99,15.48c2.34-2.78,6.67-2.6,8.77.37l43.85,61.82c1.48,2.08,4.3,2.69,6.5,1.4l14.77-8.63c2.5-1.46,5.69-.85,7.47,1.43l83.13,106.35c1.4,1.78-.49,4.26-2.58,3.39l-74.31-30.89c-1.21-.5-2.31-1.24-3.23-2.17l-27.44-27.65c-.53-.53-1.15-.96-1.83-1.27l-15.42-6.94c-1.17-.53-2.17-1.36-2.89-2.42l-21.44-31.35c-.71-1.04-2.29-.91-2.82.24l-21.57,47.13c-.45.97-.39,2.1.14,3.03l20.24,34.98c.7,1.2-.61,2.57-1.85,1.94l-61.95-31.99c-1.91-.99-4.21-.78-5.92.52l-37.95,28.98c-.49.38-1.06.65-1.66.8l-70.46,17.4Z"/></svg>