<?xml version="1.0" encoding="UTF-8"?><svg id="Layer_1" xmlns="http://www.w3.org/2000/svg" viewBox="0 0 720 195.52"><defs><style>.cls-1{fill:#155a7d;}.cls-2{fill:#fff;}</style></defs><path class="cls-2" d="M315.5,111.31h-14.36V39.1h14.36v72.21Z"/><path class="cls-2" d="M371.11,100.13l-22.38-38.46v49.29h-14.39V38.75h17.39l22.47,41.23,22.87-41.23h17.23v72.21h-14.01v-49.34l-22.86,38.51h-6.33Z"/><path class="cls-2" d="M446.73,88.04v23.01h-14.12V38.84h31.93c12.09,0,25.13,7.91,25.13,24.29,0,15.47-11.22,24.91-25.13,24.91h-17.81ZM446.73,51.28v24.36h16.24c7.26,0,12.59-5.26,12.59-12.97,0-8.4-5.43-11.39-12.59-11.39h-16.24Z"/><path class="cls-2" d="M539.52,94.83l-29.83-.13-6.6,16.6h-14.97l29.25-72.21h14.53l29.35,72.21h-14.97l-6.76-16.47ZM513.64,83.27l21.83.13-10.73-28.15-11.1,28.02Z"/><path class="cls-2" d="M631.54,101.05c-7.08,7.41-17.19,12.03-28.4,12.03-21.43,0-38.8-16.9-38.8-37.74s17.37-37.73,38.8-37.73c10.98,0,20.89,4.44,27.95,11.57l-8.22,9.29c-4.58-5.28-11.26-8.62-18.7-8.62-13.78,0-24.96,11.42-24.96,25.5s11.18,25.51,24.96,25.51c7.56,0,14.34-3.43,18.92-8.86l8.46,9.05Z"/><path class="cls-2" d="M318.12,139.79h-7.45v18.94h-4.06v-18.94h-7.45v-3.31h18.96v3.31Z"/><path class="cls-2" d="M340.33,158.74h-4.33l-2-4.64h-11.17l-2,4.64h-4.3l10.05-22.25h3.66l10.09,22.25ZM324.18,150.95h8.46l-4.23-9.82-4.23,9.82Z"/><path class="cls-2" d="M355.02,147.42l8.09,11.32h-4.67l-5.96-8.55-6.09,8.55h-4.71l8.29-11.32-8.29-10.93h4.71l6.06,8.23,5.92-8.23h4.67l-8.02,10.93Z"/><path class="cls-2" d="M397.43,158.74h-4.33l-2-4.64h-11.17l-2,4.64h-4.3l10.05-22.25h3.66l10.09,22.25ZM381.29,150.95h8.46l-4.23-9.82-4.23,9.82Z"/><path class="cls-2" d="M420.69,158.74h-4.1l-12.15-16.21v16.21h-4.06v-22.25h4.27l11.98,15.89v-15.89h4.06v22.25Z"/><path class="cls-2" d="M440.59,137.95c1.87.98,3.29,2.3,4.25,3.97.96,1.67,1.44,3.56,1.44,5.66s-.48,4.02-1.44,5.71c-.96,1.68-2.38,3.01-4.25,3.99-1.87.97-4.13,1.46-6.77,1.46h-7.99v-22.25h7.99c2.64,0,4.9.49,6.77,1.46ZM429.89,139.76v15.67h3.69c1.9,0,3.49-.34,4.77-1.03,1.29-.69,2.24-1.62,2.88-2.8.63-1.18.95-2.52.95-4.02s-.32-2.82-.95-4.01c-.63-1.19-1.59-2.12-2.88-2.8-1.29-.68-2.88-1.02-4.77-1.02h-3.69Z"/><path class="cls-2" d="M481.18,158.74h-4.33l-2-4.64h-11.17l-2,4.64h-4.3l10.05-22.25h3.66l10.09,22.25ZM465.03,150.95h8.46l-4.23-9.82-4.23,9.82Z"/><path class="cls-2" d="M498.88,137.95c1.87.98,3.29,2.3,4.25,3.97.96,1.67,1.44,3.56,1.44,5.66s-.48,4.02-1.44,5.71c-.96,1.68-2.38,3.01-4.25,3.99-1.87.97-4.13,1.46-6.77,1.46h-7.99v-22.25h7.99c2.64,0,4.9.49,6.77,1.46ZM488.18,139.76v15.67h3.69c1.9,0,3.49-.34,4.77-1.03,1.29-.69,2.24-1.62,2.88-2.8.63-1.18.95-2.52.95-4.02s-.32-2.82-.95-4.01c-.63-1.19-1.59-2.12-2.88-2.8-1.29-.68-2.88-1.02-4.77-1.02h-3.69Z"/><path class="cls-2" d="M518.88,158.74h-3.86l-9.61-22.25h4.3l7.24,17.45,7.24-17.45h4.33l-9.65,22.25Z"/><path class="cls-2" d="M536.18,158.74h-4.06v-22.25h4.06v22.25Z"/><path class="cls-2" d="M554.9,136.65c1.35.47,2.54,1.05,3.55,1.75l-1.86,2.67c-1.87-1.27-3.94-1.91-6.19-1.91-1.38,0-2.44.24-3.18.73-.74.49-1.12,1.1-1.12,1.84,0,.59.22,1.09.66,1.48.44.39.98.72,1.62.97.64.25,1.56.57,2.76.95,1.85.57,3.32,1.09,4.42,1.56,1.09.47,2.05,1.17,2.86,2.1.81.93,1.22,2.14,1.22,3.62,0,1.63-.48,2.96-1.44,3.97-.96,1.02-2.16,1.75-3.6,2.19-1.44.45-2.92.67-4.43.67-2.21,0-4.16-.39-5.86-1.18-1.69-.78-2.99-1.62-3.89-2.51l2.23-2.61c.86.83,1.93,1.53,3.22,2.11,1.29.58,2.74.87,4.37.87,1.4,0,2.64-.27,3.72-.81s1.62-1.39,1.62-2.56c0-.74-.25-1.36-.74-1.86-.5-.5-1.12-.9-1.88-1.21-.76-.31-1.78-.65-3.06-1.03-1.6-.47-2.92-.92-3.94-1.37-1.03-.45-1.9-1.09-2.61-1.92-.71-.84-1.07-1.9-1.07-3.19,0-1.86.74-3.34,2.22-4.42,1.48-1.08,3.45-1.62,5.91-1.62,1.65,0,3.15.23,4.5.7Z"/><path class="cls-2" d="M580.91,137.46c1.86,1.01,3.34,2.39,4.43,4.16,1.09,1.77,1.64,3.76,1.64,5.96s-.55,4.2-1.64,5.98c-1.09,1.78-2.57,3.17-4.43,4.18-1.86,1.01-3.92,1.51-6.18,1.51s-4.28-.5-6.14-1.51c-1.86-1.01-3.34-2.4-4.43-4.18-1.09-1.78-1.64-3.77-1.64-5.98s.55-4.19,1.64-5.96c1.09-1.77,2.57-3.16,4.43-4.16,1.86-1.01,3.91-1.51,6.14-1.51s4.32.5,6.18,1.51ZM570.71,140.43c-1.24.7-2.23,1.67-2.96,2.92-.73,1.25-1.1,2.66-1.1,4.23s.37,2.98,1.1,4.24c.73,1.26,1.72,2.24,2.96,2.94,1.24.7,2.59,1.05,4.06,1.05s2.85-.35,4.1-1.05c1.24-.7,2.22-1.68,2.94-2.94.72-1.26,1.08-2.68,1.08-4.24s-.36-2.98-1.08-4.23c-.72-1.25-1.7-2.23-2.94-2.92-1.24-.7-2.61-1.05-4.1-1.05s-2.82.35-4.06,1.05Z"/><path class="cls-2" d="M605.01,137.3c1.21.54,2.16,1.31,2.86,2.3.7,1,1.05,2.15,1.05,3.46,0,1.63-.52,3-1.56,4.1-1.04,1.1-2.42,1.84-4.13,2.23l6.5,9.35h-4.57l-6.16-9.12h-3.83v9.12h-4.06v-22.25h9.82c1.51,0,2.87.27,4.08.81ZM595.18,139.63v6.96h5.52c1.29,0,2.3-.32,3.03-.95.73-.64,1.1-1.48,1.1-2.54s-.37-1.9-1.1-2.53c-.73-.62-1.74-.94-3.03-.94h-5.52Z"/><path class="cls-2" d="M623.07,150.28v8.46h-4.06v-8.46l-8.67-13.8h4.5l6.19,10.33,6.19-10.33h4.5l-8.67,13.8Z"/><path class="cls-2" d="M636.65,155.05c.47.44.71,1.01.71,1.68,0,.38-.12.77-.37,1.18l-3.22,5.59-1.46-.54,1.49-4.16c-.43-.19-.77-.47-1.02-.84-.25-.37-.37-.78-.37-1.22,0-.66.24-1.21.71-1.67.47-.46,1.05-.68,1.73-.68.72,0,1.32.22,1.79.67Z"/><path class="cls-2" d="M665.57,137.3c1.21.54,2.16,1.31,2.86,2.3.7,1,1.05,2.15,1.05,3.46s-.35,2.5-1.05,3.48c-.7.99-1.65,1.75-2.86,2.29-1.21.54-2.58.81-4.11.81h-5.72v9.09h-4.06v-22.25h9.82c1.51,0,2.87.27,4.08.81ZM655.74,139.63v6.87h5.55c1.26,0,2.26-.31,3-.94.73-.62,1.1-1.46,1.1-2.5s-.37-1.9-1.1-2.51c-.73-.61-1.73-.92-3-.92h-5.55Z"/><path class="cls-2" d="M688.79,136.74c1.43.53,2.7,1.31,3.81,2.35l-2.03,2.67c-.95-.76-1.98-1.35-3.08-1.76-1.11-.41-2.22-.62-3.35-.62-1.51,0-2.89.36-4.13,1.06-1.24.71-2.22,1.69-2.93,2.94-.71,1.25-1.07,2.65-1.07,4.2s.36,2.98,1.08,4.24c.72,1.26,1.7,2.24,2.93,2.94,1.23.7,2.6,1.05,4.11,1.05,2.44,0,4.74-.95,6.91-2.86l2,2.77c-2.55,2.35-5.51,3.53-8.87,3.53-2.28,0-4.36-.5-6.23-1.51-1.87-1.01-3.35-2.39-4.42-4.16-1.07-1.77-1.61-3.77-1.61-5.99s.54-4.19,1.62-5.96,2.56-3.16,4.43-4.16c1.87-1.01,3.95-1.51,6.23-1.51,1.62,0,3.15.27,4.59.79Z"/><polygon class="cls-2" points="694.99 39.04 638.43 39.04 638.43 50.41 659.75 50.41 659.75 111.11 673.67 111.11 673.67 50.41 694.99 50.41 694.99 39.04"/><path class="cls-1" d="M26.91,158.62c-1.45.36-2.5-1.35-1.53-2.48l58.68-68.6c1.41-1.64,3.8-2.02,5.65-.9l10.3,6.27c1.34.82,3.08.53,4.1-.67l50.02-59.37c1.77-2.1,5.04-1.96,6.63.28l33.12,46.7c1.11,1.57,3.25,2.03,4.91,1.06l11.16-6.52c1.89-1.1,4.3-.64,5.65,1.08l62.8,80.34c1.05,1.35-.37,3.22-1.95,2.56l-56.13-23.34c-.91-.38-1.75-.94-2.44-1.64l-20.73-20.88c-.4-.4-.87-.73-1.38-.96l-11.65-5.24c-.88-.4-1.64-1.03-2.18-1.83l-16.19-23.68c-.54-.79-1.73-.69-2.13.18l-16.3,35.6c-.34.73-.3,1.59.11,2.29l15.29,26.42c.53.91-.46,1.94-1.39,1.46l-46.79-24.17c-1.44-.74-3.18-.59-4.47.39l-28.67,21.89c-.37.28-.8.49-1.25.6l-53.22,13.15Z"/></svg>